<?xml version="1.0" encoding="UTF-8" standalone="no"?>
<svg
   width="32"
   height="32"
   version="1.1"
   id="svg1"
   xmlns="http://www.w3.org/2000/svg"
   xmlns:svg="http://www.w3.org/2000/svg">
  <defs
     id="defs1" />
  <rect
     width="32"
     height="32"
     x="0"
     y="0"
     fill="#fff"
     rx="4"
     id="rect1" />
  <path
     d="m 14.0625,16.14416 q 0.382813,0.328125 0.609375,0.765625 0.226563,0.4375 0.226563,1.164063 0,0.820312 -0.328125,1.53125 -0.320313,0.710937 -0.992188,1.21875 -0.65625,0.492187 -1.546875,0.757812 -0.882812,0.257813 -2.1484375,0.257813 -1.4453125,0 -2.484375,-0.226563 Q 6.3671875,21.386348 5.71875,21.105098 V 18.55041 h 0.3046875 q 0.671875,0.40625 1.6015625,0.703125 0.9375,0.296875 1.7109375,0.296875 0.453125,0 0.9843755,-0.07031 0.53125,-0.07813 0.898437,-0.328125 0.289063,-0.195313 0.460938,-0.46875 0.171875,-0.28125 0.171875,-0.804688 0,-0.507812 -0.234375,-0.78125 Q 11.382813,16.816035 11,16.698848 q -0.382812,-0.125 -0.921875,-0.132813 -0.5390625,-0.01563 -1,-0.01563 H 8.4375 v -2.078125 h 0.6640625 q 0.609375,0 1.0781255,-0.03906 0.46875,-0.03906 0.796875,-0.179688 0.34375,-0.148437 0.515625,-0.390625 0.171875,-0.25 0.171875,-0.726562 0,-0.351563 -0.179688,-0.5625 -0.179687,-0.21875 -0.453125,-0.34375 -0.304687,-0.140625 -0.71875,-0.1875 -0.4140625,-0.04687 -0.7109375,-0.04687 -0.734375,0 -1.59375,0.257812 -0.859375,0.25 -1.6640625,0.726563 H 6.0546875 V 10.45666 Q 6.6953125,10.198848 7.796875,9.9644728 8.8984375,9.7222853 10.03125,9.7222853 q 1.101563,0 1.929688,0.1953125 0.828125,0.1875002 1.367187,0.5078122 0.640625,0.382813 0.953125,0.929688 0.3125,0.546875 0.3125,1.28125 0,0.96875 -0.601562,1.734375 -0.601563,0.757812 -1.585938,0.96875 v 0.109375 q 0.398438,0.05469 0.84375,0.21875 0.445313,0.164062 0.8125,0.476562 z m 12.515625,5.453125 H 17.445312 V 19.67541 q 1.046875,-0.757812 2.09375,-1.609375 1.054688,-0.851562 1.6875,-1.46875 0.945313,-0.914062 1.34375,-1.59375 0.398438,-0.679687 0.398438,-1.34375 0,-0.796875 -0.515625,-1.226562 -0.507813,-0.4375 -1.46875,-0.4375 -0.71875,0 -1.515625,0.296875 Q 18.679687,12.589473 18,13.05041 h -0.25 v -2.585937 q 0.554687,-0.242188 1.632812,-0.4843752 1.085938,-0.2421875 2.171875,-0.2421875 2.1875,0 3.335938,0.9218747 1.148437,0.914063 1.148437,2.59375 0,1.101563 -0.554687,2.09375 -0.546875,0.992188 -1.679688,2.046875 -0.710937,0.65625 -1.429687,1.210938 -0.71875,0.546875 -1.023438,0.765625 h 5.226563 z"
     id="text1"
     style="font-weight:600;font-size:16px;dominant-baseline:central;text-anchor:middle;fill:#333333"
     aria-label="32" />
</svg>
