<?xml version="1.0" encoding="UTF-8" standalone="no"?>
<svg
   width="32"
   height="32"
   version="1.1"
   id="svg1"
   xmlns="http://www.w3.org/2000/svg"
   xmlns:svg="http://www.w3.org/2000/svg">
  <defs
     id="defs1" />
  <rect
     width="32"
     height="32"
     x="0"
     y="0"
     fill="#fff"
     rx="4"
     id="rect1" />
  <path
     d="M 14.46875,21.597285 H 6.703125 v -2.03125 H 9.15625 V 13.417598 H 6.703125 V 11.51916 q 0.5625,0 1.078125,-0.0625 0.515625,-0.07031 0.859375,-0.234375 0.40625,-0.195312 0.609375,-0.507812 0.203125,-0.3125 0.234375,-0.7812502 h 2.585938 v 9.6328122 h 2.398437 z m 12.132812,-3.25 q 0,1.546875 -1.320312,2.53125 -1.3125,0.984375 -3.609375,0.984375 -1.289063,0 -2.210938,-0.265625 -0.921875,-0.265625 -1.523437,-0.734375 -0.59375,-0.460937 -0.882813,-1.078125 -0.28125,-0.617187 -0.28125,-1.328125 0,-0.875 0.507813,-1.546875 0.515625,-0.679687 1.773437,-1.1875 v -0.04687 q -1.015625,-0.46875 -1.492187,-1.179687 -0.476563,-0.710938 -0.476563,-1.648438 0,-1.382812 1.28125,-2.265625 1.28125,-0.8828122 3.335938,-0.8828122 2.15625,0 3.375,0.8046872 1.226562,0.796875 1.226562,2.132813 0,0.828125 -0.515625,1.476562 -0.515625,0.648438 -1.578125,1.101563 v 0.04687 q 1.21875,0.460937 1.804688,1.242187 0.585937,0.78125 0.585937,1.84375 z m -3.226562,-5.375 q 0,-0.59375 -0.460938,-0.945312 -0.453125,-0.351563 -1.210937,-0.351563 -0.28125,0 -0.578125,0.07031 -0.289063,0.07031 -0.53125,0.203125 -0.226563,0.132812 -0.375,0.351562 -0.148438,0.210938 -0.148438,0.484375 0,0.460938 0.257813,0.71875 0.265625,0.257813 0.859375,0.515625 0.21875,0.09375 0.59375,0.234375 0.382812,0.132813 0.921875,0.304688 Q 23.0625,14.136348 23.21875,13.80041 23.375,13.464473 23.375,12.972285 Z m 0.242187,5.507813 q 0,-0.5625 -0.28125,-0.851563 -0.28125,-0.289062 -1.15625,-0.664062 -0.257812,-0.117188 -0.75,-0.289063 -0.492187,-0.171875 -0.828125,-0.296875 -0.335937,0.304688 -0.609375,0.742188 -0.265625,0.429687 -0.265625,0.96875 0,0.8125 0.578125,1.296875 0.585938,0.476562 1.523438,0.476562 0.25,0 0.585937,-0.07031 0.335938,-0.07813 0.578125,-0.234375 0.28125,-0.179688 0.453125,-0.421875 0.171875,-0.242188 0.171875,-0.65625 z"
     id="text1"
     style="font-weight:600;font-size:16px;dominant-baseline:central;text-anchor:middle;fill:#333333"
     aria-label="18" />
</svg>
