<?xml version="1.0" encoding="UTF-8" standalone="no"?>
<svg
   width="32"
   height="32"
   version="1.1"
   id="svg1"
   xmlns="http://www.w3.org/2000/svg"
   xmlns:svg="http://www.w3.org/2000/svg">
  <defs
     id="defs1" />
  <rect
     width="32"
     height="32"
     x="0"
     y="0"
     fill="#fff"
     rx="4"
     id="rect1" />
  <path
     d="M 15.203125,21.597285 H 6.0703125 V 19.67541 q 1.046875,-0.757812 2.09375,-1.609375 1.0546875,-0.851562 1.6875,-1.46875 0.9453125,-0.914062 1.3437505,-1.59375 0.398437,-0.679687 0.398437,-1.34375 0,-0.796875 -0.515625,-1.226562 -0.507812,-0.4375 -1.46875,-0.4375 -0.71875,0 -1.515625,0.296875 Q 7.3046875,12.589473 6.625,13.05041 H 6.375 V 10.464473 Q 6.9296875,10.222285 8.0078125,9.9800978 9.09375,9.7379103 10.179688,9.7379103 q 2.1875,0 3.335937,0.9218747 1.148438,0.914063 1.148438,2.59375 0,1.101563 -0.554688,2.09375 Q 13.5625,16.339473 12.429688,17.39416 11.71875,18.05041 11,18.605098 10.28125,19.151973 9.9765625,19.370723 H 15.203125 Z M 26.742187,18.917598 H 25.15625 v 2.710937 H 22.289062 V 18.917598 H 16.65625 v -2.203125 l 5.445312,-6.7500002 h 3.054688 v 6.8281252 h 1.585937 z m -4.453125,-2.125 v -4.203125 l -3.382812,4.203125 z"
     id="text1"
     style="font-weight:600;font-size:16px;dominant-baseline:central;text-anchor:middle;fill:#333333"
     aria-label="24" />
</svg>
