<?xml version="1.0" encoding="UTF-8" standalone="no"?>
<svg
   width="32"
   height="32"
   version="1.1"
   id="svg1"
   xmlns="http://www.w3.org/2000/svg"
   xmlns:svg="http://www.w3.org/2000/svg">
  <defs
     id="defs1" />
  <rect
     width="32"
     height="32"
     x="0"
     y="0"
     fill="#fff"
     rx="4"
     id="rect1" />
  <path
     d="M 15.203125,21.597285 H 6.0703125 V 19.67541 q 1.046875,-0.757812 2.09375,-1.609375 1.0546875,-0.851562 1.6875,-1.46875 0.9453125,-0.914062 1.3437505,-1.59375 0.398437,-0.679687 0.398437,-1.34375 0,-0.796875 -0.515625,-1.226562 -0.507812,-0.4375 -1.46875,-0.4375 -0.71875,0 -1.515625,0.296875 Q 7.3046875,12.589473 6.625,13.05041 H 6.375 V 10.464473 Q 6.9296875,10.222285 8.0078125,9.9800978 9.09375,9.7379103 10.179688,9.7379103 q 2.1875,0 3.335937,0.9218747 1.148438,0.914063 1.148438,2.59375 0,1.101563 -0.554688,2.09375 Q 13.5625,16.339473 12.429688,17.39416 11.71875,18.05041 11,18.605098 10.28125,19.151973 9.9765625,19.370723 H 15.203125 Z M 26.5625,17.636348 q 0,0.898437 -0.328125,1.6875 -0.328125,0.789062 -0.921875,1.328125 -0.632813,0.578125 -1.46875,0.882812 -0.828125,0.304688 -1.945313,0.304688 -1.046875,0 -1.914062,-0.28125 -0.859375,-0.289063 -1.476563,-0.875 -0.710937,-0.671875 -1.085937,-1.734375 -0.375,-1.0625 -0.375,-2.539063 0,-1.53125 0.351562,-2.71875 0.351563,-1.1875 1.148438,-2.101562 0.765625,-0.875 1.984375,-1.359375 1.226562,-0.4843752 2.914062,-0.4843752 0.570313,0 1.25,0.078125 0.679688,0.078125 0.882813,0.1171875 V 12.230098 H 25.28125 q -0.210938,-0.101563 -0.71875,-0.226563 -0.5,-0.132812 -1.140625,-0.132812 -1.5,0 -2.335938,0.734375 -0.835937,0.734375 -1.007812,2.046875 0.601562,-0.359375 1.265625,-0.578125 0.671875,-0.226563 1.445312,-0.226563 0.679688,0 1.257813,0.15625 0.585937,0.15625 1.085937,0.5 0.648438,0.453125 1.039063,1.21875 0.390625,0.765625 0.390625,1.914063 z m -3.554688,1.757812 q 0.242188,-0.265625 0.382813,-0.625 0.148437,-0.367187 0.148437,-0.992187 0,-0.570313 -0.164062,-0.929688 -0.164063,-0.367187 -0.453125,-0.585937 -0.28125,-0.21875 -0.664063,-0.296875 -0.382812,-0.08594 -0.789062,-0.08594 -0.34375,0 -0.71875,0.07813 -0.375,0.07813 -0.6875,0.195313 0,0.07813 -0.0078,0.257812 -0.0078,0.179688 -0.0078,0.453125 0,0.960938 0.1875,1.585938 0.195312,0.617187 0.515625,0.945312 0.21875,0.242188 0.515625,0.359375 0.296875,0.109375 0.640625,0.109375 0.257812,0 0.570312,-0.117187 0.3125,-0.117188 0.53125,-0.351563 z"
     id="text1"
     style="font-weight:600;font-size:16px;dominant-baseline:central;text-anchor:middle;fill:#333333"
     aria-label="26" />
</svg>
