<?xml version="1.0" encoding="UTF-8" standalone="no"?>
<svg
   width="32"
   height="32"
   version="1.1"
   id="svg1"
   xmlns="http://www.w3.org/2000/svg"
   xmlns:svg="http://www.w3.org/2000/svg">
  <defs
     id="defs1" />
  <rect
     width="32"
     height="32"
     x="0"
     y="0"
     fill="#fff"
     rx="4"
     id="rect1" />
  <path
     d="M 14.46875,21.597285 H 6.703125 v -2.03125 H 9.15625 V 13.417598 H 6.703125 V 11.51916 q 0.5625,0 1.078125,-0.0625 0.515625,-0.07031 0.859375,-0.234375 0.40625,-0.195312 0.609375,-0.507812 0.203125,-0.3125 0.234375,-0.7812502 h 2.585938 V 19.566035 H 14.46875 Z M 26.5,15.776973 q 0,1.46875 -0.265625,2.632812 -0.265625,1.15625 -0.828125,1.898438 -0.578125,0.757812 -1.484375,1.148437 -0.90625,0.382813 -2.234375,0.382813 -1.304688,0 -2.226563,-0.390625 Q 18.539062,21.058223 17.96875,20.292598 17.390625,19.526973 17.132812,18.39416 16.875,17.253535 16.875,15.784785 q 0,-1.515625 0.265625,-2.632812 0.265625,-1.117188 0.84375,-1.890625 0.578125,-0.765625 1.5,-1.148438 0.921875,-0.3828122 2.203125,-0.3828122 1.335937,0 2.242187,0.3984372 0.90625,0.390625 1.484375,1.171875 0.570313,0.765625 0.828125,1.890625 Q 26.5,14.308223 26.5,15.776973 Z m -3.023438,0 q 0,-2.109375 -0.414062,-3 -0.414063,-0.898438 -1.375,-0.898438 -0.960938,0 -1.375,0.898438 -0.414063,0.890625 -0.414063,3.015625 0,2.070312 0.421875,2.984375 0.421875,0.914062 1.367188,0.914062 0.945312,0 1.367187,-0.914062 0.421875,-0.914063 0.421875,-3 z"
     id="text1"
     style="font-weight:600;font-size:16px;dominant-baseline:central;text-anchor:middle;fill:#333333"
     aria-label="10" />
</svg>
