<?xml version="1.0" encoding="UTF-8" standalone="no"?>
<svg
   width="32"
   height="32"
   version="1.1"
   id="svg1"
   xmlns="http://www.w3.org/2000/svg"
   xmlns:svg="http://www.w3.org/2000/svg">
  <defs
     id="defs1" />
  <rect
     width="32"
     height="32"
     x="0"
     y="0"
     fill="#fff"
     rx="4"
     id="rect1" />
  <path
     d="M 14.46875,21.597285 H 6.703125 v -2.03125 H 9.15625 V 13.417598 H 6.703125 V 11.51916 q 0.5625,0 1.078125,-0.0625 0.515625,-0.07031 0.859375,-0.234375 0.40625,-0.195312 0.609375,-0.507812 0.203125,-0.3125 0.234375,-0.7812502 h 2.585938 v 9.6328122 h 2.398437 z m 11.859375,-3.9375 q 0,0.90625 -0.34375,1.6875 Q 25.648437,20.120723 25,20.67541 q -0.71875,0.59375 -1.65625,0.882813 -0.929688,0.28125 -2.125,0.28125 -1.398438,-0.0078 -2.367188,-0.226563 -0.960937,-0.210937 -1.570312,-0.476562 v -2.570313 h 0.328125 q 0.710937,0.421875 1.53125,0.703125 0.820312,0.28125 1.632812,0.28125 0.492188,0 1.0625,-0.109375 0.578125,-0.117187 0.914063,-0.414062 0.265625,-0.242188 0.398437,-0.492188 0.140625,-0.25 0.140625,-0.773437 0,-0.40625 -0.1875,-0.695313 -0.179687,-0.296875 -0.46875,-0.476562 -0.421875,-0.257813 -1.015625,-0.335938 -0.59375,-0.08594 -1.078125,-0.08594 -0.703125,0 -1.351562,0.125 -0.640625,0.117187 -1.125,0.234375 H 17.71875 V 9.9644728 h 8.273437 v 2.2265622 h -5.453125 v 1.898438 q 0.242188,-0.01563 0.609375,-0.02344 0.375,-0.01563 0.65625,-0.01563 0.960938,0 1.710938,0.1875 0.757812,0.179688 1.304687,0.507813 0.710938,0.429687 1.109375,1.140625 0.398438,0.703125 0.398438,1.773437 z"
     id="text1"
     style="font-weight:600;font-size:16px;dominant-baseline:central;text-anchor:middle;fill:#333333"
     aria-label="15" />
</svg>
