<?xml version="1.0" encoding="UTF-8" standalone="no"?>
<svg
   width="32"
   height="32"
   version="1.1"
   id="svg1"
   xmlns="http://www.w3.org/2000/svg"
   xmlns:svg="http://www.w3.org/2000/svg">
  <defs
     id="defs1" />
  <rect
     width="32"
     height="32"
     x="0"
     y="0"
     fill="#fff"
     rx="4"
     id="rect1" />
  <path
     d="M 14.46875,21.597285 H 6.703125 v -2.03125 H 9.15625 V 13.417598 H 6.703125 V 11.51916 q 0.5625,0 1.078125,-0.0625 0.515625,-0.07031 0.859375,-0.234375 0.40625,-0.195312 0.609375,-0.507812 0.203125,-0.3125 0.234375,-0.7812502 h 2.585938 V 19.566035 H 14.46875 Z M 25.4375,16.14416 q 0.382812,0.328125 0.609375,0.765625 0.226562,0.4375 0.226562,1.164063 0,0.820312 -0.328125,1.53125 -0.320312,0.710937 -0.992187,1.21875 -0.65625,0.492187 -1.546875,0.757812 -0.882813,0.257813 -2.148438,0.257813 -1.445312,0 -2.484375,-0.226563 -1.03125,-0.226562 -1.679687,-0.507812 V 18.55041 h 0.304687 Q 18.070312,18.95666 19,19.253535 q 0.9375,0.296875 1.710937,0.296875 0.453125,0 0.984375,-0.07031 0.53125,-0.07813 0.898438,-0.328125 0.289062,-0.195313 0.460937,-0.46875 0.171875,-0.28125 0.171875,-0.804688 0,-0.507812 -0.234375,-0.78125 -0.234375,-0.28125 -0.617187,-0.398437 -0.382813,-0.125 -0.921875,-0.132813 -0.539063,-0.01563 -1,-0.01563 H 19.8125 v -2.078125 h 0.664062 q 0.609375,0 1.078125,-0.03906 0.46875,-0.03906 0.796875,-0.179688 0.34375,-0.148437 0.515625,-0.390625 0.171875,-0.25 0.171875,-0.726562 0,-0.351563 -0.179687,-0.5625 -0.179688,-0.21875 -0.453125,-0.34375 -0.304688,-0.140625 -0.71875,-0.1875 -0.414063,-0.04687 -0.710938,-0.04687 -0.734375,0 -1.59375,0.257812 -0.859375,0.25 -1.664062,0.726563 H 17.429687 V 10.45666 q 0.640625,-0.257812 1.742188,-0.4921872 1.101562,-0.2421875 2.234375,-0.2421875 1.101562,0 1.929687,0.1953125 0.828125,0.1875002 1.367188,0.5078122 0.640625,0.382813 0.953125,0.929688 0.3125,0.546875 0.3125,1.28125 0,0.96875 -0.601563,1.734375 -0.601562,0.757812 -1.585937,0.96875 v 0.109375 q 0.398437,0.05469 0.84375,0.21875 0.445312,0.164062 0.8125,0.476562 z"
     id="text1"
     style="font-weight:600;font-size:16px;dominant-baseline:central;text-anchor:middle;fill:#333333"
     aria-label="13" />
</svg>
