<?xml version="1.0" encoding="UTF-8" standalone="no"?>
<svg
   width="32"
   height="32"
   version="1.1"
   id="svg1"
   xmlns="http://www.w3.org/2000/svg"
   xmlns:svg="http://www.w3.org/2000/svg">
  <defs
     id="defs1" />
  <rect
     width="32"
     height="32"
     x="0"
     y="0"
     fill="#fff"
     rx="4"
     id="rect1" />
  <path
     d="M 14.46875,21.597285 H 6.703125 v -2.03125 H 9.15625 V 13.417598 H 6.703125 V 11.51916 q 0.5625,0 1.078125,-0.0625 0.515625,-0.07031 0.859375,-0.234375 0.40625,-0.195312 0.609375,-0.507812 0.203125,-0.3125 0.234375,-0.7812502 h 2.585938 v 9.6328122 h 2.398437 z m 11.859375,-6.46875 q 0,1.460938 -0.375,2.71875 -0.375,1.257813 -1.140625,2.117188 -0.828125,0.929687 -2.054688,1.398437 -1.226562,0.460938 -2.859375,0.460938 -0.578125,0 -1.25,-0.07031 -0.671875,-0.07031 -0.882812,-0.125 v -2.289062 h 0.3125 q 0.234375,0.109375 0.664062,0.234375 0.4375,0.125 1.1875,0.125 0.609375,0 1.195313,-0.148438 0.585937,-0.15625 1.007812,-0.484375 0.460938,-0.351562 0.757813,-0.875 0.296875,-0.53125 0.398437,-1.273437 -0.679687,0.390625 -1.265625,0.601562 -0.578125,0.203125 -1.445312,0.203125 -0.65625,0 -1.257813,-0.15625 -0.59375,-0.164062 -1.085937,-0.5 -0.648438,-0.460937 -1.039063,-1.210937 -0.382812,-0.757813 -0.382812,-1.90625 0,-1.867188 1.296875,-3.039063 1.304687,-1.1796872 3.414062,-1.1796872 1.085938,0 1.921875,0.2890622 0.84375,0.28125 1.453125,0.867188 0.710938,0.671875 1.070313,1.710937 0.359375,1.039063 0.359375,2.53125 z m -2.992188,-0.4375 q 0,-0.953125 -0.1875,-1.5625 -0.179687,-0.617187 -0.5,-0.953125 -0.226562,-0.25 -0.523437,-0.359375 -0.296875,-0.109375 -0.625,-0.109375 -0.304688,0 -0.585938,0.109375 -0.273437,0.101563 -0.53125,0.359375 -0.242187,0.25 -0.398437,0.65625 -0.148438,0.40625 -0.148438,0.96875 0,0.546875 0.164063,0.921875 0.164062,0.367188 0.453125,0.585938 0.273437,0.210937 0.640625,0.296875 0.375,0.08594 0.8125,0.08594 0.351562,0 0.765625,-0.08594 0.414062,-0.09375 0.640625,-0.1875 0,-0.08594 0.0078,-0.242188 0.01563,-0.164062 0.01563,-0.484375 z"
     id="text1"
     style="font-weight:600;font-size:16px;dominant-baseline:central;text-anchor:middle;fill:#333333"
     aria-label="19" />
</svg>
