<?xml version="1.0" encoding="UTF-8" standalone="no"?>
<svg
   width="32"
   height="32"
   version="1.1"
   id="svg1"
   xmlns="http://www.w3.org/2000/svg"
   xmlns:svg="http://www.w3.org/2000/svg">
  <defs
     id="defs1" />
  <rect
     width="32"
     height="32"
     x="0"
     y="0"
     fill="#fff"
     rx="4"
     id="rect1" />
  <path
     d="M 14.46875,21.597285 H 6.703125 v -2.03125 H 9.15625 V 13.417598 H 6.703125 V 11.51916 q 0.5625,0 1.078125,-0.0625 0.515625,-0.07031 0.859375,-0.234375 0.40625,-0.195312 0.609375,-0.507812 0.203125,-0.3125 0.234375,-0.7812502 h 2.585938 v 9.6328122 h 2.398437 z m 12.109375,0 H 17.445312 V 19.67541 q 1.046875,-0.757812 2.09375,-1.609375 1.054688,-0.851562 1.6875,-1.46875 0.945313,-0.914062 1.34375,-1.59375 0.398438,-0.679687 0.398438,-1.34375 0,-0.796875 -0.515625,-1.226562 -0.507813,-0.4375 -1.46875,-0.4375 -0.71875,0 -1.515625,0.296875 Q 18.679687,12.589473 18,13.05041 h -0.25 v -2.585937 q 0.554687,-0.242188 1.632812,-0.4843752 1.085938,-0.2421875 2.171875,-0.2421875 2.1875,0 3.335938,0.9218747 1.148437,0.914063 1.148437,2.59375 0,1.101563 -0.554687,2.09375 -0.546875,0.992188 -1.679688,2.046875 -0.710937,0.65625 -1.429687,1.210938 -0.71875,0.546875 -1.023438,0.765625 h 5.226563 z"
     id="text1"
     style="font-weight:600;font-size:16px;dominant-baseline:central;text-anchor:middle;fill:#333333"
     aria-label="12" />
</svg>
