<?xml version="1.0" encoding="UTF-8" standalone="no"?>
<svg
   width="32"
   height="32"
   version="1.1"
   id="svg1"
   xmlns="http://www.w3.org/2000/svg"
   xmlns:svg="http://www.w3.org/2000/svg">
  <defs
     id="defs1" />
  <rect
     width="32"
     height="32"
     x="0"
     y="0"
     fill="#fff"
     rx="4"
     id="rect1" />
  <path
     d="m 20.914062,18.347285 q 0,1.546875 -1.320312,2.53125 -1.3125,0.984375 -3.609375,0.984375 -1.289062,0 -2.210937,-0.265625 Q 12.851563,21.33166 12.25,20.86291 q -0.59375,-0.460937 -0.882812,-1.078125 -0.28125,-0.617187 -0.28125,-1.328125 0,-0.875 0.507812,-1.546875 0.515625,-0.679687 1.773438,-1.1875 V 15.67541 Q 12.351563,15.20666 11.875,14.495723 q -0.476562,-0.710938 -0.476562,-1.648438 0,-1.382812 1.28125,-2.265625 1.28125,-0.8828122 3.335937,-0.8828122 2.15625,0 3.375,0.8046872 1.226562,0.796875 1.226562,2.132813 0,0.828125 -0.515625,1.476562 -0.515625,0.648438 -1.578125,1.101563 v 0.04687 q 1.21875,0.460937 1.804688,1.242187 0.585937,0.78125 0.585937,1.84375 z m -3.226562,-5.375 q 0,-0.59375 -0.460938,-0.945312 -0.453125,-0.351563 -1.210937,-0.351563 -0.28125,0 -0.578125,0.07031 -0.289062,0.07031 -0.53125,0.203125 -0.226562,0.132812 -0.375,0.351562 -0.148437,0.210938 -0.148437,0.484375 0,0.460938 0.257812,0.71875 0.265625,0.257813 0.859375,0.515625 0.21875,0.09375 0.59375,0.234375 0.382812,0.132813 0.921875,0.304688 Q 17.375,14.136348 17.53125,13.80041 17.6875,13.464473 17.6875,12.972285 Z m 0.242187,5.507813 q 0,-0.5625 -0.28125,-0.851563 -0.28125,-0.289062 -1.15625,-0.664062 Q 16.234375,16.847285 15.742188,16.67541 15.25,16.503535 14.914063,16.378535 q -0.335938,0.304688 -0.609375,0.742188 -0.265625,0.429687 -0.265625,0.96875 0,0.8125 0.578125,1.296875 0.585937,0.476562 1.523437,0.476562 0.25,0 0.585937,-0.07031 0.335938,-0.07813 0.578125,-0.234375 0.28125,-0.179688 0.453125,-0.421875 0.171875,-0.242188 0.171875,-0.65625 z"
     id="text1"
     style="font-weight:600;font-size:16px;dominant-baseline:central;text-anchor:middle;fill:#333333"
     aria-label="8" />
</svg>
