<?xml version="1.0" encoding="UTF-8" standalone="no"?>
<svg
   width="32"
   height="32"
   version="1.1"
   id="svg1"
   xmlns="http://www.w3.org/2000/svg"
   xmlns:svg="http://www.w3.org/2000/svg">
  <defs
     id="defs1" />
  <rect
     width="32"
     height="32"
     x="0"
     y="0"
     fill="#fff"
     rx="4"
     id="rect1" />
  <path
     d="M 20.890625,21.597285 H 11.757813 V 19.67541 q 1.046875,-0.757812 2.09375,-1.609375 1.054687,-0.851562 1.6875,-1.46875 0.945312,-0.914062 1.343749,-1.59375 0.398438,-0.679687 0.398438,-1.34375 0,-0.796875 -0.515625,-1.226562 -0.507813,-0.4375 -1.46875,-0.4375 -0.71875,0 -1.515625,0.296875 -0.789062,0.296875 -1.46875,0.757812 h -0.25 v -2.585937 q 0.554688,-0.242188 1.632813,-0.4843752 1.085937,-0.2421875 2.171875,-0.2421875 2.187499,0 3.335937,0.9218747 1.148437,0.914063 1.148437,2.59375 0,1.101563 -0.554687,2.09375 -0.546875,0.992188 -1.679688,2.046875 -0.710937,0.65625 -1.429687,1.210938 -0.71875,0.546875 -1.023437,0.765625 h 5.226562 z"
     id="text1"
     style="font-weight:600;font-size:16px;dominant-baseline:central;text-anchor:middle;fill:#333333"
     aria-label="2" />
</svg>
